<svg width="100" height="100" viewBox="0 0 100 100" fill="none" xmlns="http://www.w3.org/2000/svg">
<path opacity="0.34" d="M6.08356 56.0905C6.08356 67.736 10.7097 78.9045 18.9443 87.1391C27.1789 95.3737 38.3474 99.9998 49.9929 99.9998C61.6384 99.9998 72.8069 95.3737 81.0415 87.1391C89.2761 78.9045 93.9023 67.736 93.9023 56.0905C93.9023 44.445 89.2761 33.2765 81.0415 25.0419C72.8069 16.8073 61.6384 12.1812 49.9929 12.1812C38.3474 12.1812 27.1789 16.8073 18.9443 25.0419C10.7097 33.2765 6.08356 44.445 6.08356 56.0905Z" fill="#2B67ED"/>
<path d="M33.9731 37.2663L49.9929 0L66.0269 37.2663" fill="#2B67ED"/>
<path d="M24.483 56.0906C24.4828 59.4407 25.1425 62.7581 26.4244 65.8533C27.7063 68.9485 29.5853 71.7609 31.9542 74.1298C34.323 76.4988 37.1353 78.378 40.2304 79.6601C43.3255 80.9422 46.6428 81.6021 49.9929 81.6021C53.3431 81.6021 56.6604 80.9422 59.7555 79.6601C62.8506 78.378 65.6629 76.4988 68.0317 74.1298C70.4006 71.7609 72.2796 68.9485 73.5615 65.8533C74.8434 62.7581 75.5031 59.4407 75.5029 56.0906C75.5031 52.7405 74.8434 49.4231 73.5615 46.3279C72.2796 43.2327 70.4006 40.4203 68.0317 38.0513C65.6629 35.6824 62.8506 33.8032 59.7555 32.5211C56.6604 31.239 53.3431 30.5791 49.9929 30.5791C46.6428 30.5791 43.3255 31.239 40.2304 32.5211C37.1353 33.8032 34.323 35.6824 31.9542 38.0513C29.5853 40.4203 27.7063 43.2327 26.4244 46.3279C25.1425 49.4231 24.4828 52.7405 24.483 56.0906Z" fill="#4381EF"/>
<path d="M49.9929 81.6146C44.9503 81.6146 40.021 80.1193 35.8282 77.3178C31.6355 74.5162 28.3676 70.5343 26.4379 65.8756C24.5082 61.2169 24.0033 56.0905 24.987 51.1448C25.9708 46.1991 28.399 41.6562 31.9647 38.0906C35.5303 34.5249 40.0732 32.0967 45.0189 31.113C49.9646 30.1292 55.091 30.6341 59.7497 32.5638C64.4084 34.4935 68.3903 37.7614 71.1918 41.9541C73.9933 46.1469 75.4886 51.0762 75.4886 56.1188C75.4886 59.467 74.8292 62.7823 73.5479 65.8756C72.2666 68.9689 70.3886 71.7795 68.0211 74.147C65.6536 76.5145 62.843 78.3925 59.7497 79.6738C56.6564 80.9551 53.341 81.6146 49.9929 81.6146ZM49.9929 33.4559C45.5106 33.4559 41.129 34.7851 37.4021 37.2753C33.6752 39.7655 30.7704 43.305 29.0551 47.4461C27.3398 51.5872 26.891 56.1439 27.7655 60.5401C28.6399 64.9363 30.7983 68.9744 33.9678 72.1439C37.1373 75.3134 41.1754 77.4718 45.5716 78.3462C49.9678 79.2207 54.5245 78.7719 58.6656 77.0566C62.8067 75.3413 66.3462 72.4365 68.8364 68.7096C71.3266 64.9827 72.6558 60.6011 72.6558 56.1188C72.6632 53.1379 72.0825 50.1848 70.947 47.4287C69.8114 44.6726 68.1432 42.1675 66.038 40.0571C63.9329 37.9466 61.432 36.2722 58.6787 35.1298C55.9254 33.9873 52.9738 33.3993 49.9929 33.3993V33.4559Z" fill="white"/>
</svg>
