<svg width="742" height="910" viewBox="0 0 742 910" fill="none" xmlns="http://www.w3.org/2000/svg">
<g filter="url(#filter0_d_224_92)">
<path fill-rule="evenodd" clip-rule="evenodd" d="M7 362.485C7 562.576 219.673 899 371 899C522.327 899 735 562.576 735 362.485C735 164.139 572.219 3 371 3C169.781 3 7 164.139 7 362.485ZM371 238.789C403.18 238.789 434.041 251.21 456.796 273.32C479.55 295.43 492.333 325.417 492.333 356.684C492.333 387.952 479.55 417.939 456.796 440.048C434.041 462.158 403.18 474.579 371 474.579C338.82 474.579 307.959 462.158 285.204 440.048C262.45 417.939 249.667 387.952 249.667 356.684C249.667 325.417 262.45 295.43 285.204 273.32C307.959 251.21 338.82 238.789 371 238.789Z" fill="#B0B0B0"/>
<path d="M371 891.5C335.787 891.5 295.818 871.803 255.111 837.567C214.592 803.489 174.278 755.785 138.51 701.642C66.8168 593.116 14.5 460.449 14.5 362.485C14.5 168.364 173.84 10.5 371 10.5C568.16 10.5 727.5 168.364 727.5 362.485C727.5 460.449 675.183 593.116 603.49 701.642C567.722 755.785 527.408 803.489 486.889 837.567C446.182 871.803 406.213 891.5 371 891.5ZM462.022 267.941C437.846 244.45 405.1 231.289 371 231.289C336.9 231.289 304.154 244.45 279.978 267.941C255.794 291.439 242.167 323.357 242.167 356.684C242.167 390.012 255.794 421.929 279.978 445.427C304.154 468.919 336.9 482.079 371 482.079C405.1 482.079 437.846 468.919 462.022 445.427C486.206 421.929 499.833 390.012 499.833 356.684C499.833 323.357 486.206 291.439 462.022 267.941Z" stroke="#070707" stroke-opacity="0.37" stroke-width="15"/>
</g>
<defs>
<filter id="filter0_d_224_92" x="0" y="0" width="742" height="910" filterUnits="userSpaceOnUse" color-interpolation-filters="sRGB">
<feFlood flood-opacity="0" result="BackgroundImageFix"/>
<feColorMatrix in="SourceAlpha" type="matrix" values="0 0 0 0 0 0 0 0 0 0 0 0 0 0 0 0 0 0 127 0" result="hardAlpha"/>
<feOffset dy="4"/>
<feGaussianBlur stdDeviation="3.5"/>
<feComposite in2="hardAlpha" operator="out"/>
<feColorMatrix type="matrix" values="0 0 0 0 0 0 0 0 0 0 0 0 0 0 0 0 0 0 0.25 0"/>
<feBlend mode="normal" in2="BackgroundImageFix" result="effect1_dropShadow_224_92"/>
<feBlend mode="normal" in="SourceGraphic" in2="effect1_dropShadow_224_92" result="shape"/>
</filter>
</defs>
</svg>
