<svg width="742" height="910" viewBox="0 0 742 910" fill="none" xmlns="http://www.w3.org/2000/svg">
<g filter="url(#filter0_d_225_89)">
<path fill-rule="evenodd" clip-rule="evenodd" d="M7 362.485C7 562.576 219.673 899 371 899C522.327 899 735 562.576 735 362.485C735 164.139 572.219 3 371 3C169.781 3 7 164.139 7 362.485ZM371 238.789C403.18 238.789 434.041 251.21 456.796 273.32C479.55 295.43 492.333 325.417 492.333 356.684C492.333 387.952 479.55 417.939 456.796 440.048C434.041 462.158 403.18 474.579 371 474.579C338.82 474.579 307.959 462.158 285.204 440.048C262.45 417.939 249.667 387.952 249.667 356.684C249.667 325.417 262.45 295.43 285.204 273.32C307.959 251.21 338.82 238.789 371 238.789Z" fill="#B0B0B0" opacity="1"/>
<path d="M371 884C338.405 884 300.134 865.633 259.939 831.828C220.118 798.337 180.261 751.236 144.768 697.508C73.4653 589.574 22 458.368 22 362.485C22 172.589 177.898 18 371 18C564.102 18 720 172.589 720 362.485C720 458.368 668.535 589.574 597.232 697.508C561.739 751.236 521.882 798.337 482.061 831.828C441.866 865.633 403.595 884 371 884ZM467.249 262.562C441.65 237.689 407.021 223.789 371 223.789C334.979 223.789 300.35 237.689 274.751 262.562C249.138 287.449 234.667 321.297 234.667 356.684C234.667 392.072 249.138 425.919 274.751 450.806C300.35 475.679 334.979 489.579 371 489.579C407.021 489.579 441.65 475.679 467.249 450.806C492.862 425.919 507.333 392.072 507.333 356.684C507.333 321.297 492.862 287.449 467.249 262.562Z" stroke="black" stroke-opacity="0.37" stroke-width="30"/>
</g>
<defs>
<filter id="filter0_d_225_89" x="0" y="0" width="742" height="910" filterUnits="userSpaceOnUse" color-interpolation-filters="sRGB">
<feFlood flood-opacity="0" result="BackgroundImageFix"/>
<feColorMatrix in="SourceAlpha" type="matrix" values="0 0 0 0 0 0 0 0 0 0 0 0 0 0 0 0 0 0 127 0" result="hardAlpha"/>
<feOffset dy="4"/>
<feGaussianBlur stdDeviation="3.5"/>
<feComposite in2="hardAlpha" operator="out"/>
<feColorMatrix type="matrix" values="0 0 0 0 0 0 0 0 0 0 0 0 0 0 0 0 0 0 0.25 0"/>
<feBlend mode="normal" in2="BackgroundImageFix" result="effect1_dropShadow_225_89"/>
<feBlend mode="normal" in="SourceGraphic" in2="effect1_dropShadow_225_89" result="shape"/>
</filter>
</defs>
</svg>
