<svg width="29" height="22" viewBox="0 0 29 22" fill="none" xmlns="http://www.w3.org/2000/svg">
<path d="M0 1.73684C0 1.2762 0.182988 0.83443 0.508709 0.508709C0.83443 0.182988 1.2762 0 1.73684 0H27.2105C27.6712 0 28.1129 0.182988 28.4387 0.508709C28.7644 0.83443 28.9474 1.2762 28.9474 1.73684C28.9474 2.19748 28.7644 2.63925 28.4387 2.96498C28.1129 3.2907 27.6712 3.47368 27.2105 3.47368H1.73684C1.2762 3.47368 0.83443 3.2907 0.508709 2.96498C0.182988 2.63925 0 2.19748 0 1.73684V1.73684ZM4.63158 11C4.63158 10.5394 4.81457 10.0976 5.14029 9.77187C5.46601 9.44615 5.90778 9.26316 6.36842 9.26316H22.5789C23.0396 9.26316 23.4814 9.44615 23.8071 9.77187C24.1328 10.0976 24.3158 10.5394 24.3158 11C24.3158 11.4606 24.1328 11.9024 23.8071 12.2281C23.4814 12.5539 23.0396 12.7368 22.5789 12.7368H6.36842C5.90778 12.7368 5.46601 12.5539 5.14029 12.2281C4.81457 11.9024 4.63158 11.4606 4.63158 11V11ZM9.26316 20.2632C9.26316 19.8025 9.44615 19.3607 9.77187 19.035C10.0976 18.7093 10.5394 18.5263 11 18.5263H17.9474C18.408 18.5263 18.8498 18.7093 19.1755 19.035C19.5012 19.3607 19.6842 19.8025 19.6842 20.2632C19.6842 20.7238 19.5012 21.1656 19.1755 21.4913C18.8498 21.817 18.408 22 17.9474 22H11C10.5394 22 10.0976 21.817 9.77187 21.4913C9.44615 21.1656 9.26316 20.7238 9.26316 20.2632V20.2632Z" fill="#0A84FF"/>
</svg>
